<svg id="visual" viewBox="0 0 900 1350" width="900" height="1350" xmlns="http://www.w3.org/2000/svg" xmlns:xlink="http://www.w3.org/1999/xlink" version="1.1"><path d="M836 1350L839 1317.8C842 1285.7 848 1221.3 851 1157C854 1092.7 854 1028.3 852.5 964C851 899.7 848 835.3 845 771.2C842 707 839 643 836 578.8C833 514.7 830 450.3 831.5 386C833 321.7 839 257.3 842 193C845 128.7 845 64.3 845 32.2L845 0L900 0L900 32.2C900 64.3 900 128.7 900 193C900 257.3 900 321.7 900 386C900 450.3 900 514.7 900 578.8C900 643 900 707 900 771.2C900 835.3 900 899.7 900 964C900 1028.3 900 1092.7 900 1157C900 1221.3 900 1285.7 900 1317.8L900 1350Z" fill="#e1ded0"></path><path d="M764 1350L768.5 1317.8C773 1285.7 782 1221.3 789.5 1157C797 1092.7 803 1028.3 803 964C803 899.7 797 835.3 786.5 771.2C776 707 761 643 756.5 578.8C752 514.7 758 450.3 767 386C776 321.7 788 257.3 789.5 193C791 128.7 782 64.3 777.5 32.2L773 0L846 0L846 32.2C846 64.3 846 128.7 843 193C840 257.3 834 321.7 832.5 386C831 450.3 834 514.7 837 578.8C840 643 843 707 846 771.2C849 835.3 852 899.7 853.5 964C855 1028.3 855 1092.7 852 1157C849 1221.3 843 1285.7 840 1317.8L837 1350Z" fill="#e9e6dc"></path><path d="M557 1350L576.5 1317.8C596 1285.7 635 1221.3 656 1157C677 1092.7 680 1028.3 665 964C650 899.7 617 835.3 608 771.2C599 707 614 643 608 578.8C602 514.7 575 450.3 587 386C599 321.7 650 257.3 648.5 193C647 128.7 593 64.3 566 32.2L539 0L774 0L778.5 32.2C783 64.3 792 128.7 790.5 193C789 257.3 777 321.7 768 386C759 450.3 753 514.7 757.5 578.8C762 643 777 707 787.5 771.2C798 835.3 804 899.7 804 964C804 1028.3 798 1092.7 790.5 1157C783 1221.3 774 1285.7 769.5 1317.8L765 1350Z" fill="#eeede5"></path><path d="M494 1350L503 1317.8C512 1285.7 530 1221.3 537.5 1157C545 1092.7 542 1028.3 524 964C506 899.7 473 835.3 461 771.2C449 707 458 643 459.5 578.8C461 514.7 455 450.3 467 386C479 321.7 509 257.3 495.5 193C482 128.7 425 64.3 396.5 32.2L368 0L540 0L567 32.2C594 64.3 648 128.7 649.5 193C651 257.3 600 321.7 588 386C576 450.3 603 514.7 609 578.8C615 643 600 707 609 771.2C618 835.3 651 899.7 666 964C681 1028.3 678 1092.7 657 1157C636 1221.3 597 1285.7 577.5 1317.8L558 1350Z" fill="#f2f1eb"></path><path d="M431 1350L437 1317.8C443 1285.7 455 1221.3 465.5 1157C476 1092.7 485 1028.3 468.5 964C452 899.7 410 835.3 396.5 771.2C383 707 398 643 399.5 578.8C401 514.7 389 450.3 396.5 386C404 321.7 431 257.3 419 193C407 128.7 356 64.3 330.5 32.2L305 0L369 0L397.5 32.2C426 64.3 483 128.7 496.5 193C510 257.3 480 321.7 468 386C456 450.3 462 514.7 460.5 578.8C459 643 450 707 462 771.2C474 835.3 507 899.7 525 964C543 1028.3 546 1092.7 538.5 1157C531 1221.3 513 1285.7 504 1317.8L495 1350Z" fill="#f3f2ec"></path><path d="M332 1350L338 1317.8C344 1285.7 356 1221.3 366.5 1157C377 1092.7 386 1028.3 374 964C362 899.7 329 835.3 320 771.2C311 707 326 643 332 578.8C338 514.7 335 450.3 336.5 386C338 321.7 344 257.3 326 193C308 128.7 266 64.3 245 32.2L224 0L306 0L331.5 32.2C357 64.3 408 128.7 420 193C432 257.3 405 321.7 397.5 386C390 450.3 402 514.7 400.5 578.8C399 643 384 707 397.5 771.2C411 835.3 453 899.7 469.5 964C486 1028.3 477 1092.7 466.5 1157C456 1221.3 444 1285.7 438 1317.8L432 1350Z" fill="#f2f1eb"></path><path d="M287 1350L291.5 1317.8C296 1285.7 305 1221.3 317 1157C329 1092.7 344 1028.3 333.5 964C323 899.7 287 835.3 279.5 771.2C272 707 293 643 297.5 578.8C302 514.7 290 450.3 291.5 386C293 321.7 308 257.3 294.5 193C281 128.7 239 64.3 218 32.2L197 0L225 0L246 32.2C267 64.3 309 128.7 327 193C345 257.3 339 321.7 337.5 386C336 450.3 339 514.7 333 578.8C327 643 312 707 321 771.2C330 835.3 363 899.7 375 964C387 1028.3 378 1092.7 367.5 1157C357 1221.3 345 1285.7 339 1317.8L333 1350Z" fill="#eeede5"></path><path d="M116 1350L108.5 1317.8C101 1285.7 86 1221.3 89 1157C92 1092.7 113 1028.3 116 964C119 899.7 104 835.3 95 771.2C86 707 83 643 83 578.8C83 514.7 86 450.3 86 386C86 321.7 83 257.3 81.5 193C80 128.7 80 64.3 80 32.2L80 0L198 0L219 32.2C240 64.3 282 128.7 295.5 193C309 257.3 294 321.7 292.5 386C291 450.3 303 514.7 298.5 578.8C294 643 273 707 280.5 771.2C288 835.3 324 899.7 334.5 964C345 1028.3 330 1092.7 318 1157C306 1221.3 297 1285.7 292.5 1317.8L288 1350Z" fill="#e9e6dc"></path><path d="M0 1350L0 1317.8C0 1285.7 0 1221.3 0 1157C0 1092.7 0 1028.3 0 964C0 899.7 0 835.3 0 771.2C0 707 0 643 0 578.8C0 514.7 0 450.3 0 386C0 321.7 0 257.3 0 193C0 128.7 0 64.3 0 32.2L0 0L81 0L81 32.2C81 64.3 81 128.7 82.5 193C84 257.3 87 321.7 87 386C87 450.3 84 514.7 84 578.8C84 643 87 707 96 771.2C105 835.3 120 899.7 117 964C114 1028.3 93 1092.7 90 1157C87 1221.3 102 1285.7 109.5 1317.8L117 1350Z" fill="#e1ded0"></path></svg>