<svg id="visual" viewBox="0 0 1800 2200" width="1800" height="2200" xmlns="http://www.w3.org/2000/svg" xmlns:xlink="http://www.w3.org/1999/xlink" version="1.1"><g><g transform="translate(310 2050)"><path d="M110.3 -130.2C146 -101.6 180 -69.7 187.2 -32.4C194.5 4.8 175 47.3 151.2 86.1C127.3 124.9 99.2 160.1 60.6 180C21.9 200 -27.2 204.8 -65.6 187.6C-104.1 170.5 -131.8 131.3 -152.2 90.6C-172.5 49.8 -185.3 7.4 -180.1 -33.4C-174.9 -74.3 -151.6 -113.6 -118.6 -142.7C-85.6 -171.9 -42.8 -190.8 -2.7 -187.5C37.3 -184.3 74.7 -158.9 110.3 -130.2Z" fill="#d8d4cd"></path></g><g transform="translate(1141 1889)"><path d="M66 -79.8C83.4 -64.1 93.8 -41.3 97.4 -17.7C100.9 5.9 97.6 30.2 87 51.8C76.4 73.4 58.5 92.4 36 101.9C13.5 111.4 -13.6 111.5 -38.9 103.7C-64.3 95.9 -87.9 80.1 -101.5 57.9C-115.1 35.7 -118.7 7.1 -111.4 -17.1C-104.1 -41.3 -86 -61.1 -65.6 -76.2C-45.2 -91.3 -22.6 -101.8 0.9 -102.8C24.3 -103.9 48.7 -95.4 66 -79.8Z" fill="#d8d4cd"></path></g><g transform="translate(1787 1295)"><path d="M93.4 -112.3C119.9 -89 139.4 -58.5 146.7 -24.8C154 9 148.9 46 130.4 72.7C111.9 99.3 79.9 115.5 47.9 123.7C15.9 131.9 -16.1 132.1 -47.8 123.9C-79.5 115.6 -110.8 98.8 -125.3 72.8C-139.9 46.7 -137.7 11.4 -133.5 -25.5C-129.4 -62.5 -123.3 -101.2 -100.8 -125.1C-78.2 -149.1 -39.1 -158.4 -2.8 -155C33.4 -151.6 66.9 -135.6 93.4 -112.3Z" fill="#d8d4cd"></path></g><g transform="translate(5 1423)"><path d="M85.1 -100.7C108.4 -81.8 124.2 -53.3 128.5 -23.4C132.9 6.4 125.8 37.4 110.5 63.8C95.3 90.1 71.9 111.7 42.5 126.7C13.1 141.6 -22.2 149.9 -49.2 138.6C-76.2 127.3 -94.7 96.4 -111.2 65.4C-127.7 34.4 -142 3.4 -137.9 -25.1C-133.8 -53.6 -111.2 -79.6 -85.1 -98C-59.1 -116.4 -29.5 -127.2 0.7 -128C30.9 -128.8 61.8 -119.6 85.1 -100.7Z" fill="#d8d4cd"></path></g><g transform="translate(996 461)"><path d="M68 -80.8C87.5 -64.6 102.4 -42.7 108.6 -17.6C114.8 7.4 112.4 35.4 99.9 58.3C87.5 81.2 64.9 98.8 39.1 108.9C13.2 119.1 -16 121.7 -40.4 112.3C-64.8 102.8 -84.4 81.4 -99.7 56.7C-115 32 -126 3.9 -124 -24.4C-122 -52.6 -106.9 -81 -84.1 -96.6C-61.2 -112.2 -30.6 -114.9 -3.2 -111.1C24.2 -107.2 48.4 -96.9 68 -80.8Z" fill="#d8d4cd"></path></g><g transform="translate(376 892)"><path d="M93 -107.1C121.6 -86.8 146.6 -58.5 153.9 -25.9C161.2 6.8 150.7 43.9 131.7 75.3C112.7 106.8 85.2 132.6 53.3 142.5C21.5 152.3 -14.8 146.2 -48 133.4C-81.2 120.6 -111.5 101.2 -130.2 73.1C-148.9 44.9 -156.2 8.1 -153.1 -30C-150 -68.1 -136.5 -107.3 -109.3 -127.9C-82 -148.5 -41 -150.4 -4.4 -145.1C32.2 -139.8 64.4 -127.5 93 -107.1Z" fill="#d8d4cd"></path></g><g transform="translate(535 1564)"><path d="M110.9 -134.6C142.9 -105.3 167.3 -69.6 175.8 -29.7C184.4 10.1 177 54 155 87.1C133.1 120.3 96.6 142.6 57.2 156.7C17.9 170.8 -24.3 176.6 -60 164C-95.8 151.4 -125.2 120.3 -142.8 84.8C-160.4 49.4 -166.3 9.5 -158.4 -26.6C-150.4 -62.7 -128.7 -95.1 -100 -124.9C-71.3 -154.7 -35.6 -181.9 1.9 -184.2C39.5 -186.5 78.9 -163.8 110.9 -134.6Z" fill="#d8d4cd"></path></g></g></svg>