<svg id="visual" viewBox="0 0 900 900" width="900" height="900" xmlns="http://www.w3.org/2000/svg" xmlns:xlink="http://www.w3.org/1999/xlink" version="1.1"><path d="M854 900L852.5 878.5C851 857 848 814 848 771.2C848 728.3 851 685.7 852.5 642.8C854 600 854 557 851 514.2C848 471.3 842 428.7 842 385.8C842 343 848 300 848 257.2C848 214.3 842 171.7 840.5 128.8C839 86 842 43 843.5 21.5L845 0L900 0L900 21.5C900 43 900 86 900 128.8C900 171.7 900 214.3 900 257.2C900 300 900 343 900 385.8C900 428.7 900 471.3 900 514.2C900 557 900 600 900 642.8C900 685.7 900 728.3 900 771.2C900 814 900 857 900 878.5L900 900Z" fill="#e1ded0"></path><path d="M791 900L789.5 878.5C788 857 785 814 782 771.2C779 728.3 776 685.7 777.5 642.8C779 600 785 557 786.5 514.2C788 471.3 785 428.7 785 385.8C785 343 788 300 786.5 257.2C785 214.3 779 171.7 776 128.8C773 86 773 43 773 21.5L773 0L846 0L844.5 21.5C843 43 840 86 841.5 128.8C843 171.7 849 214.3 849 257.2C849 300 843 343 843 385.8C843 428.7 849 471.3 852 514.2C855 557 855 600 853.5 642.8C852 685.7 849 728.3 849 771.2C849 814 852 857 853.5 878.5L855 900Z" fill="#e9e6dc"></path><path d="M710 900L708.5 878.5C707 857 704 814 704 771.2C704 728.3 707 685.7 708.5 642.8C710 600 710 557 710 514.2C710 471.3 710 428.7 710 385.8C710 343 710 300 707 257.2C704 214.3 698 171.7 698 128.8C698 86 704 43 707 21.5L710 0L774 0L774 21.5C774 43 774 86 777 128.8C780 171.7 786 214.3 787.5 257.2C789 300 786 343 786 385.8C786 428.7 789 471.3 787.5 514.2C786 557 780 600 778.5 642.8C777 685.7 780 728.3 783 771.2C786 814 789 857 790.5 878.5L792 900Z" fill="#eeede5"></path><path d="M530 900L527 878.5C524 857 518 814 512 771.2C506 728.3 500 685.7 491 642.8C482 600 470 557 467 514.2C464 471.3 470 428.7 485 385.8C500 343 524 300 533 257.2C542 214.3 536 171.7 521 128.8C506 86 482 43 470 21.5L458 0L711 0L708 21.5C705 43 699 86 699 128.8C699 171.7 705 214.3 708 257.2C711 300 711 343 711 385.8C711 428.7 711 471.3 711 514.2C711 557 711 600 709.5 642.8C708 685.7 705 728.3 705 771.2C705 814 708 857 709.5 878.5L711 900Z" fill="#f2f1eb"></path><path d="M386 900L389 878.5C392 857 398 814 395 771.2C392 728.3 380 685.7 372.5 642.8C365 600 362 557 363.5 514.2C365 471.3 371 428.7 381.5 385.8C392 343 407 300 414.5 257.2C422 214.3 422 171.7 411.5 128.8C401 86 380 43 369.5 21.5L359 0L459 0L471 21.5C483 43 507 86 522 128.8C537 171.7 543 214.3 534 257.2C525 300 501 343 486 385.8C471 428.7 465 471.3 468 514.2C471 557 483 600 492 642.8C501 685.7 507 728.3 513 771.2C519 814 525 857 528 878.5L531 900Z" fill="#f3f2ec"></path><path d="M188 900L191 878.5C194 857 200 814 201.5 771.2C203 728.3 200 685.7 198.5 642.8C197 600 197 557 198.5 514.2C200 471.3 203 428.7 204.5 385.8C206 343 206 300 207.5 257.2C209 214.3 212 171.7 210.5 128.8C209 86 203 43 200 21.5L197 0L360 0L370.5 21.5C381 43 402 86 412.5 128.8C423 171.7 423 214.3 415.5 257.2C408 300 393 343 382.5 385.8C372 428.7 366 471.3 364.5 514.2C363 557 366 600 373.5 642.8C381 685.7 393 728.3 396 771.2C399 814 393 857 390 878.5L387 900Z" fill="#f2f1eb"></path><path d="M143 900L144.5 878.5C146 857 149 814 149 771.2C149 728.3 146 685.7 144.5 642.8C143 600 143 557 144.5 514.2C146 471.3 149 428.7 150.5 385.8C152 343 152 300 153.5 257.2C155 214.3 158 171.7 156.5 128.8C155 86 149 43 146 21.5L143 0L198 0L201 21.5C204 43 210 86 211.5 128.8C213 171.7 210 214.3 208.5 257.2C207 300 207 343 205.5 385.8C204 428.7 201 471.3 199.5 514.2C198 557 198 600 199.5 642.8C201 685.7 204 728.3 202.5 771.2C201 814 195 857 192 878.5L189 900Z" fill="#eeede5"></path><path d="M80 900L84.5 878.5C89 857 98 814 101 771.2C104 728.3 101 685.7 98 642.8C95 600 92 557 93.5 514.2C95 471.3 101 428.7 101 385.8C101 343 95 300 95 257.2C95 214.3 101 171.7 99.5 128.8C98 86 89 43 84.5 21.5L80 0L144 0L147 21.5C150 43 156 86 157.5 128.8C159 171.7 156 214.3 154.5 257.2C153 300 153 343 151.5 385.8C150 428.7 147 471.3 145.5 514.2C144 557 144 600 145.5 642.8C147 685.7 150 728.3 150 771.2C150 814 147 857 145.5 878.5L144 900Z" fill="#e9e6dc"></path><path d="M0 900L0 878.5C0 857 0 814 0 771.2C0 728.3 0 685.7 0 642.8C0 600 0 557 0 514.2C0 471.3 0 428.7 0 385.8C0 343 0 300 0 257.2C0 214.3 0 171.7 0 128.8C0 86 0 43 0 21.5L0 0L81 0L85.5 21.5C90 43 99 86 100.5 128.8C102 171.7 96 214.3 96 257.2C96 300 102 343 102 385.8C102 428.7 96 471.3 94.5 514.2C93 557 96 600 99 642.8C102 685.7 105 728.3 102 771.2C99 814 90 857 85.5 878.5L81 900Z" fill="#e1ded0"></path></svg>